<svg width="300" height="282" viewBox="0 0 300 282" fill="none" xmlns="http://www.w3.org/2000/svg">
<ellipse cx="150" cy="141" rx="150" ry="141" fill="#9DA6F4"/>
<path d="M149.415 45.0024L228.082 128.153L72.3068 129.6L149.415 45.0024Z" fill="#202E62"/>
<path d="M151.064 211.7L72.331 128.578L228.105 127.074L151.064 211.7Z" fill="#202E62"/>
<path d="M102.852 244.625L105 252.852L107.141 244.625H110.141V256H107.836V252.922L108.047 248.18L105.773 256H104.211L101.938 248.18L102.148 252.922V256H99.8516V244.625H102.852ZM115.203 249.734L116.914 244.625H119.414L116.367 251.875V256H114.039V251.875L110.984 244.625H113.484L115.203 249.734ZM126.445 252V256H124.148V244.625H128.023C129.148 244.625 130.044 244.974 130.711 245.672C131.383 246.37 131.719 247.276 131.719 248.391C131.719 249.505 131.388 250.385 130.727 251.031C130.065 251.677 129.148 252 127.977 252H126.445ZM126.445 250.086H128.023C128.461 250.086 128.799 249.943 129.039 249.656C129.279 249.37 129.398 248.953 129.398 248.406C129.398 247.839 129.276 247.388 129.031 247.055C128.786 246.716 128.458 246.544 128.047 246.539H126.445V250.086ZM141.266 251.336C141.266 252.862 140.904 254.047 140.18 254.891C139.461 255.734 138.461 256.156 137.18 256.156C135.904 256.156 134.901 255.74 134.172 254.906C133.443 254.068 133.073 252.896 133.062 251.391V249.445C133.062 247.883 133.424 246.664 134.148 245.789C134.872 244.909 135.878 244.469 137.164 244.469C138.43 244.469 139.427 244.901 140.156 245.766C140.885 246.625 141.255 247.833 141.266 249.391V251.336ZM138.961 249.43C138.961 248.404 138.815 247.641 138.523 247.141C138.232 246.641 137.779 246.391 137.164 246.391C136.555 246.391 136.104 246.633 135.812 247.117C135.521 247.596 135.37 248.328 135.359 249.312V251.336C135.359 252.331 135.508 253.065 135.805 253.539C136.102 254.008 136.56 254.242 137.18 254.242C137.779 254.242 138.224 254.013 138.516 253.555C138.807 253.091 138.956 252.375 138.961 251.406V249.43ZM146.359 251.844H145.219V256H142.922V244.625H146.586C147.737 244.625 148.625 244.924 149.25 245.523C149.88 246.117 150.195 246.964 150.195 248.062C150.195 249.573 149.646 250.63 148.547 251.234L150.539 255.891V256H148.07L146.359 251.844ZM145.219 249.93H146.523C146.982 249.93 147.326 249.779 147.555 249.477C147.784 249.169 147.898 248.76 147.898 248.25C147.898 247.109 147.453 246.539 146.562 246.539H145.219V249.93ZM158.75 246.539H155.938V256H153.633V246.539H150.867V244.625H158.75V246.539ZM165.938 251.359H162.367V256H160.07V244.625H166.367V246.539H162.367V249.453H165.938V251.359ZM175.688 251.336C175.688 252.862 175.326 254.047 174.602 254.891C173.883 255.734 172.883 256.156 171.602 256.156C170.326 256.156 169.323 255.74 168.594 254.906C167.865 254.068 167.495 252.896 167.484 251.391V249.445C167.484 247.883 167.846 246.664 168.57 245.789C169.294 244.909 170.299 244.469 171.586 244.469C172.852 244.469 173.849 244.901 174.578 245.766C175.307 246.625 175.677 247.833 175.688 249.391V251.336ZM173.383 249.43C173.383 248.404 173.237 247.641 172.945 247.141C172.654 246.641 172.201 246.391 171.586 246.391C170.977 246.391 170.526 246.633 170.234 247.117C169.943 247.596 169.792 248.328 169.781 249.312V251.336C169.781 252.331 169.93 253.065 170.227 253.539C170.523 254.008 170.982 254.242 171.602 254.242C172.201 254.242 172.646 254.013 172.938 253.555C173.229 253.091 173.378 252.375 173.383 251.406V249.43ZM179.633 254.094H183.664V256H177.336V244.625H179.633V254.094ZM187.391 256H185.094V244.625H187.391V256ZM197.328 251.336C197.328 252.862 196.966 254.047 196.242 254.891C195.523 255.734 194.523 256.156 193.242 256.156C191.966 256.156 190.964 255.74 190.234 254.906C189.505 254.068 189.135 252.896 189.125 251.391V249.445C189.125 247.883 189.487 246.664 190.211 245.789C190.935 244.909 191.94 244.469 193.227 244.469C194.492 244.469 195.49 244.901 196.219 245.766C196.948 246.625 197.318 247.833 197.328 249.391V251.336ZM195.023 249.43C195.023 248.404 194.878 247.641 194.586 247.141C194.294 246.641 193.841 246.391 193.227 246.391C192.617 246.391 192.167 246.633 191.875 247.117C191.583 247.596 191.432 248.328 191.422 249.312V251.336C191.422 252.331 191.57 253.065 191.867 253.539C192.164 254.008 192.622 254.242 193.242 254.242C193.841 254.242 194.286 254.013 194.578 253.555C194.87 253.091 195.018 252.375 195.023 251.406V249.43Z" fill="black"/>
</svg>
